<svg width="358" height="177" viewBox="0 0 358 177" fill="none" xmlns="http://www.w3.org/2000/svg">
<path d="M49.7471 36.6396C50.8499 36.6396 51.874 36.8366 52.8193 37.2305C53.804 37.6243 54.6706 38.1758 55.4189 38.8848C56.2067 39.5544 56.8763 40.3815 57.4277 41.3662C57.9792 42.3115 58.373 43.3356 58.6094 44.4385L68.7715 91.5859H70.7803C72.4346 83.9053 74.1283 76.0671 75.8613 68.0713C77.5944 60.0361 79.3275 52.1585 81.0605 44.4385C81.415 42.9417 81.9468 41.5828 82.6558 40.3618C83.286 39.3377 84.1525 38.4121 85.2554 37.585C86.3976 36.7184 87.8747 36.2852 89.6865 36.2852C91.0651 36.2852 92.2664 36.5412 93.2905 37.0532C94.354 37.5259 95.2205 38.1561 95.8901 38.9438C96.5991 39.6922 97.1112 40.5194 97.4263 41.4253C97.7808 42.3312 97.958 43.2174 97.958 44.084C97.958 44.5566 97.9383 45.0096 97.8989 45.4429C97.8595 45.8761 97.8005 46.2503 97.7217 46.5654C97.6429 46.9593 97.5641 47.3138 97.4854 47.6289L81.2969 111.91C80.7061 113.249 79.9183 114.431 78.9336 115.455C78.1064 116.361 77.0233 117.188 75.6841 117.937C74.3843 118.646 72.7497 119 70.7803 119H68.7715C66.8021 119 65.1872 118.646 63.9268 117.937C62.6663 117.188 61.6619 116.361 60.9136 115.455C60.047 114.431 59.3971 113.249 58.9639 111.91L50.6924 77.2881H48.6836C47.4232 82.8812 46.0643 88.6515 44.6069 94.5991C43.189 100.547 41.8301 106.317 40.5303 111.91C40.0182 113.249 39.3289 114.431 38.4624 115.455C37.6746 116.361 36.6506 117.188 35.3901 117.937C34.1691 118.646 32.5739 119 30.6045 119H28.5957C26.6263 119 24.9523 118.646 23.5737 117.937C22.2345 117.188 21.1317 116.361 20.2651 115.455C19.241 114.431 18.4336 113.249 17.8428 111.91L1.89062 47.6289C1.81185 47.3138 1.73307 46.9593 1.6543 46.5654C1.57552 46.2503 1.51644 45.8761 1.47705 45.4429C1.43766 45.0096 1.41797 44.5566 1.41797 44.084C1.41797 43.2174 1.57552 42.3312 1.89062 41.4253C2.24512 40.5194 2.75716 39.6922 3.42676 38.9438C4.13574 38.1561 5.00228 37.5259 6.02637 37.0532C7.08984 36.5412 8.31087 36.2852 9.68945 36.2852C11.5013 36.2852 12.9587 36.7184 14.0615 37.585C15.2038 38.4121 16.09 39.3377 16.7202 40.3618C17.4292 41.5828 17.9609 42.9417 18.3154 44.4385L28.5957 91.5859H30.6045C31.3529 87.9622 32.1603 84.1613 33.0269 80.1831C33.8934 76.1655 34.7599 72.1283 35.6265 68.0713C36.5324 63.9749 37.4186 59.9377 38.2852 55.9595C39.1911 51.9419 40.0576 48.1016 40.8848 44.4385C41.4362 42.1934 42.4997 40.3421 44.0752 38.8848C45.6507 37.388 47.5413 36.6396 49.7471 36.6396ZM104.575 59.6816C104.575 55.9004 105.127 52.6903 106.229 50.0513C107.332 47.3729 108.731 45.1475 110.424 43.375C112.157 41.6025 114.048 40.224 116.096 39.2393C118.184 38.2152 120.193 37.4471 122.123 36.9351C124.092 36.423 125.864 36.1079 127.44 35.9897C129.015 35.8716 130.177 35.8125 130.926 35.8125H132.935C133.683 35.8125 134.845 35.8716 136.42 35.9897C137.996 36.1079 139.749 36.423 141.679 36.9351C143.609 37.4471 145.598 38.2152 147.646 39.2393C149.734 40.224 151.604 41.6025 153.259 43.375C154.952 45.1475 156.331 47.3729 157.395 50.0513C158.497 52.6903 159.049 55.9004 159.049 59.6816V95.0127C159.049 98.9121 158.497 102.221 157.395 104.938C156.331 107.656 154.952 109.921 153.259 111.733C151.604 113.545 149.734 114.982 147.646 116.046C145.598 117.07 143.609 117.838 141.679 118.35C139.749 118.862 137.996 119.177 136.42 119.295C134.845 119.414 133.683 119.473 132.935 119.473H130.926C130.177 119.473 129.015 119.414 127.44 119.295C125.864 119.177 124.092 118.862 122.123 118.35C120.193 117.838 118.184 117.07 116.096 116.046C114.048 114.982 112.157 113.545 110.424 111.733C108.731 109.921 107.332 107.656 106.229 104.938C105.127 102.221 104.575 98.9121 104.575 95.0127V59.6816ZM124.19 97.2578C124.269 98.7152 124.604 99.9953 125.195 101.098C125.707 102.083 126.475 102.969 127.499 103.757C128.562 104.545 130.059 104.938 131.989 104.938C133.88 104.938 135.337 104.545 136.361 103.757C137.385 102.969 138.153 102.083 138.666 101.098C139.217 99.9953 139.552 98.7152 139.67 97.2578V58.7363C139.552 57.3184 139.217 56.0382 138.666 54.896C138.153 53.9507 137.385 53.0841 136.361 52.2964C135.337 51.4692 133.88 51.0557 131.989 51.0557C130.059 51.0557 128.562 51.4692 127.499 52.2964C126.475 53.0841 125.707 53.9507 125.195 54.896C124.604 56.0382 124.269 57.3184 124.19 58.7363V97.2578ZM173.465 49.7559C173.465 48.0622 173.504 46.4079 173.583 44.793C173.701 43.1781 174.036 41.7404 174.587 40.48C175.139 39.2196 176.005 38.2152 177.187 37.4668C178.408 36.679 180.121 36.2852 182.327 36.2852H201.824C206.669 36.5215 211.002 37.5456 214.822 39.3574C216.437 40.1452 218.013 41.1299 219.549 42.3115C221.124 43.4538 222.523 44.8914 223.744 46.6245C224.965 48.3182 225.949 50.327 226.698 52.6509C227.446 54.9748 227.82 57.6729 227.82 60.7451C227.82 61.3753 227.761 62.2222 227.643 63.2856C227.525 64.3097 227.269 65.452 226.875 66.7124C226.481 67.9334 225.949 69.2135 225.28 70.5527C224.61 71.8919 223.724 73.172 222.621 74.3931C221.518 75.6141 220.159 76.7367 218.544 77.7607C216.969 78.7848 215.098 79.612 212.932 80.2422C214.31 80.7936 215.708 81.5223 217.126 82.4282C218.544 83.2948 219.825 84.4173 220.967 85.7959C222.109 87.1745 223.035 88.8288 223.744 90.7588C224.492 92.6888 224.866 94.9339 224.866 97.4941V105.884C224.866 106.356 224.984 106.75 225.221 107.065C225.457 107.381 225.693 107.656 225.93 107.893C226.875 108.838 227.426 109.665 227.584 110.374C227.742 111.044 227.82 111.595 227.82 112.028C227.82 113.407 227.545 114.569 226.993 115.514C226.442 116.459 225.713 117.228 224.807 117.818C223.941 118.409 222.936 118.823 221.794 119.059C220.691 119.335 219.549 119.473 218.367 119.473C217.067 119.473 215.748 119.276 214.409 118.882C213.069 118.449 211.848 117.838 210.746 117.05C209.643 116.263 208.737 115.278 208.028 114.096C207.358 112.915 207.023 111.556 207.023 110.02V97.4941C207.023 95.7611 206.905 94.1659 206.669 92.7085C206.433 91.2511 205.98 89.9907 205.31 88.9272C204.64 87.8638 203.715 87.0366 202.533 86.4458C201.352 85.855 199.815 85.5596 197.925 85.5596H191.308V105.293C191.308 107.026 191.249 108.72 191.13 110.374C191.052 112.028 190.736 113.505 190.185 114.805C189.634 116.066 188.747 117.09 187.526 117.877C186.305 118.626 184.572 119 182.327 119C180.121 119 178.408 118.626 177.187 117.877C176.005 117.09 175.139 116.066 174.587 114.805C174.036 113.505 173.701 112.028 173.583 110.374C173.504 108.72 173.465 107.026 173.465 105.293V49.7559ZM199.343 72.3252C201.312 72.2464 203.085 71.7738 204.66 70.9072C205.33 70.5527 205.98 70.0998 206.61 69.5483C207.24 68.9969 207.811 68.3076 208.323 67.4805C208.835 66.6533 209.229 65.6883 209.505 64.5854C209.82 63.4826 209.978 62.2025 209.978 60.7451C209.978 59.4453 209.82 58.3031 209.505 57.3184C209.229 56.2943 208.855 55.408 208.382 54.6597C207.91 53.9113 207.358 53.2811 206.728 52.769C206.137 52.257 205.527 51.8434 204.896 51.5283C203.4 50.7799 201.706 50.3467 199.815 50.2285H191.308V72.3252H199.343ZM266.578 36.2852C270.162 36.2852 273.491 36.7381 276.563 37.644C279.675 38.55 282.373 39.9089 284.657 41.7207C286.981 43.4932 288.793 45.7186 290.093 48.397C291.432 51.0754 292.102 54.2067 292.102 57.791V94.4219C292.102 97.4941 291.767 100.212 291.097 102.575C290.428 104.899 289.541 106.928 288.438 108.661C287.375 110.354 286.154 111.812 284.775 113.033C283.397 114.214 281.999 115.179 280.581 115.928C277.193 117.74 273.353 118.764 269.06 119H249.444C247.199 119 245.466 118.626 244.245 117.877C243.024 117.09 242.138 116.066 241.586 114.805C241.035 113.505 240.7 112.048 240.582 110.433C240.503 108.818 240.464 107.144 240.464 105.411V49.7559C240.464 48.0622 240.503 46.4079 240.582 44.793C240.7 43.1781 241.035 41.7404 241.586 40.48C242.138 39.2196 243.024 38.2152 244.245 37.4668C245.466 36.679 247.199 36.2852 249.444 36.2852H266.578ZM258.425 50.1104V104.938H266.105C267.799 104.86 269.316 104.466 270.655 103.757C271.206 103.481 271.758 103.107 272.309 102.634C272.861 102.162 273.353 101.61 273.786 100.98C274.219 100.31 274.554 99.5226 274.791 98.6167C275.066 97.7108 275.204 96.667 275.204 95.4854V60.627C275.204 59.3271 275.066 58.1849 274.791 57.2002C274.554 56.1761 274.219 55.2899 273.786 54.5415C273.353 53.7931 272.861 53.1629 272.309 52.6509C271.758 52.1388 271.206 51.7253 270.655 51.4102C269.316 50.6618 267.799 50.2285 266.105 50.1104H258.425ZM320.697 57.082C320.737 58.7363 321.209 60.2331 322.115 61.5723C323.061 62.8721 324.282 64.1128 325.778 65.2944C327.314 66.4761 329.048 67.638 330.978 68.7803C332.908 69.8831 334.877 71.0648 336.886 72.3252C338.934 73.5462 340.923 74.8854 342.853 76.3428C344.783 77.8001 346.516 79.4544 348.052 81.3057C349.588 83.1569 350.829 85.2445 351.774 87.5684C352.72 89.8923 353.232 92.5312 353.311 95.4854V95.958C353.311 99.1878 352.917 102.004 352.129 104.407C351.341 106.809 350.297 108.877 348.998 110.61C347.698 112.343 346.181 113.781 344.448 114.923C342.715 116.026 340.884 116.912 338.954 117.582C337.063 118.252 335.133 118.724 333.164 119C331.234 119.276 329.402 119.433 327.669 119.473H327.078C323.73 119.473 320.796 119.138 318.275 118.468C315.754 117.799 313.588 116.912 311.776 115.81C309.964 114.667 308.448 113.368 307.227 111.91C306.045 110.453 305.1 108.956 304.391 107.42C303.682 105.844 303.17 104.289 302.854 102.752C302.539 101.216 302.382 99.7786 302.382 98.4395C302.382 97.0609 302.618 95.8595 303.091 94.8354C303.563 93.8114 304.174 92.9842 304.922 92.354C305.71 91.6844 306.596 91.1921 307.581 90.877C308.605 90.5618 309.669 90.4043 310.771 90.4043C311.796 90.4043 312.839 90.5618 313.903 90.877C315.006 91.1921 315.99 91.6844 316.857 92.354C317.763 92.9842 318.492 93.8114 319.043 94.8354C319.634 95.8201 319.949 96.9821 319.988 98.3213C320.067 101.275 320.737 103.304 321.997 104.407C323.257 105.47 325.069 106.002 327.433 106.002C328.614 105.963 329.697 105.825 330.682 105.588C331.706 105.313 332.573 104.86 333.282 104.229C333.991 103.56 334.542 102.693 334.936 101.63C335.369 100.527 335.586 99.1484 335.586 97.4941C335.586 95.446 335.113 93.5947 334.168 91.9404C333.262 90.2861 332.061 88.75 330.564 87.332C329.067 85.9141 327.354 84.5749 325.424 83.3145C323.494 82.0146 321.524 80.7345 319.516 79.4741C317.507 78.1743 315.537 76.8351 313.607 75.4565C311.717 74.0386 310.003 72.5024 308.467 70.8481C306.931 69.1938 305.69 67.3623 304.745 65.3535C303.839 63.3447 303.367 61.0602 303.327 58.5V57.5547C303.367 53.3402 303.918 49.8346 304.981 47.0381C306.084 44.2415 307.68 42.0161 309.767 40.3618C311.894 38.7075 314.494 37.5456 317.566 36.876C320.638 36.167 324.163 35.8125 328.142 35.8125H329.678C333.301 35.8125 336.374 36.2064 338.895 36.9941C341.415 37.7819 343.503 38.7863 345.157 40.0073C346.851 41.2284 348.17 42.6069 349.116 44.1431C350.1 45.6792 350.829 47.1956 351.302 48.6924C351.774 50.1891 352.07 51.5874 352.188 52.8872C352.306 54.187 352.365 55.2308 352.365 56.0186C352.365 57.2002 352.129 58.2834 351.656 59.2681C351.223 60.2134 350.612 61.0208 349.825 61.6904C349.076 62.36 348.17 62.8918 347.107 63.2856C346.083 63.6401 344.96 63.8174 343.739 63.8174C342.794 63.8174 341.849 63.6401 340.903 63.2856C339.958 62.8918 339.111 62.3994 338.363 61.8086C337.614 61.2178 337.004 60.5482 336.531 59.7998C336.059 59.012 335.822 58.2243 335.822 57.4365C335.822 54.2067 335.231 51.9616 334.05 50.7012C332.908 49.4408 331.214 48.8105 328.969 48.8105C327.905 48.8105 326.861 48.8696 325.837 48.9878C324.853 49.106 323.966 49.4408 323.179 49.9922C322.43 50.5042 321.82 51.3117 321.347 52.4146C320.914 53.5174 320.697 55.0732 320.697 57.082Z" fill="#272727"/>
<path d="M187.139 167.718C187.139 169.153 186.939 170.366 186.541 171.354C186.158 172.343 185.663 173.165 185.057 173.819C184.451 174.473 183.773 174.983 183.023 175.35C182.29 175.717 181.564 175.988 180.846 176.164C180.144 176.355 179.498 176.467 178.908 176.499C178.318 176.546 177.871 176.57 177.568 176.57C176.436 176.57 175.303 176.491 174.171 176.331C173.038 176.172 172.002 175.876 171.061 175.446C170.135 175.015 169.362 174.433 168.74 173.699C168.134 172.965 167.791 172.024 167.711 170.876C167.711 170.685 167.743 170.469 167.807 170.23C167.87 169.991 168.014 169.759 168.237 169.536C168.461 169.329 168.796 169.145 169.242 168.986C169.689 168.842 170.295 168.771 171.061 168.771C171.986 168.771 172.695 168.842 173.19 168.986C173.684 169.145 174.051 169.329 174.291 169.536C174.53 169.759 174.681 169.991 174.745 170.23C174.825 170.485 174.905 170.716 174.984 170.924C175.112 171.259 175.359 171.49 175.726 171.618C176.109 171.761 176.627 171.833 177.281 171.833C177.871 171.833 178.334 171.697 178.669 171.426C179.02 171.155 179.283 170.828 179.458 170.445C179.634 170.078 179.746 169.696 179.793 169.297C179.841 168.914 179.865 168.595 179.865 168.34V162.98C179.722 163.459 179.514 163.938 179.243 164.416C178.988 164.895 178.653 165.325 178.238 165.708C177.824 166.091 177.321 166.402 176.731 166.641C176.157 166.88 175.479 167 174.697 167C173.82 167 172.943 166.856 172.065 166.569C171.188 166.282 170.391 165.812 169.673 165.158C168.971 164.488 168.397 163.611 167.95 162.526C167.504 161.441 167.28 160.093 167.28 158.482V151.544C167.28 149.965 167.504 148.641 167.95 147.572C168.397 146.488 168.971 145.61 169.673 144.94C170.391 144.271 171.188 143.792 172.065 143.505C172.943 143.218 173.82 143.074 174.697 143.074C175.479 143.074 176.157 143.202 176.731 143.457C177.321 143.696 177.824 144.007 178.238 144.39C178.653 144.773 178.988 145.204 179.243 145.682C179.514 146.161 179.722 146.631 179.865 147.094C179.865 146.775 179.889 146.384 179.937 145.921C180.001 145.459 180.152 145.02 180.392 144.605C180.631 144.175 180.998 143.816 181.492 143.529C181.987 143.226 182.673 143.074 183.55 143.074C184.411 143.074 185.081 143.234 185.56 143.553C186.038 143.856 186.397 144.263 186.636 144.773C186.875 145.283 187.019 145.866 187.067 146.52C187.115 147.158 187.139 147.812 187.139 148.481V167.718ZM174.697 157.956C174.697 158.371 174.713 158.785 174.745 159.2C174.777 159.615 174.865 159.99 175.008 160.325C175.152 160.644 175.359 160.907 175.63 161.114C175.917 161.306 176.308 161.401 176.803 161.401C177.425 161.401 177.935 161.202 178.334 160.803C178.733 160.404 179.044 159.918 179.267 159.344C179.49 158.754 179.642 158.139 179.722 157.501C179.817 156.847 179.865 156.265 179.865 155.755C179.849 154.543 179.793 153.49 179.698 152.597C179.618 151.703 179.466 150.97 179.243 150.396C179.02 149.805 178.709 149.375 178.31 149.104C177.927 148.816 177.425 148.673 176.803 148.673C176.308 148.673 175.917 148.777 175.63 148.984C175.359 149.175 175.152 149.438 175.008 149.773C174.865 150.108 174.777 150.483 174.745 150.898C174.713 151.313 174.697 151.735 174.697 152.166V157.956ZM192.833 148.529C192.833 147.843 192.873 147.174 192.953 146.52C193.032 145.866 193.2 145.283 193.455 144.773C193.726 144.263 194.101 143.856 194.58 143.553C195.074 143.234 195.736 143.074 196.565 143.074C197.379 143.074 198.025 143.234 198.503 143.553C198.982 143.856 199.349 144.263 199.604 144.773C199.859 145.283 200.019 145.866 200.083 146.52C200.162 147.174 200.202 147.843 200.202 148.529V157.86C200.202 158.323 200.218 158.77 200.25 159.2C200.298 159.615 200.394 159.99 200.537 160.325C200.681 160.644 200.888 160.907 201.159 161.114C201.446 161.306 201.829 161.401 202.308 161.401C202.946 161.401 203.464 161.186 203.863 160.755C204.278 160.325 204.597 159.735 204.82 158.985C205.059 158.235 205.219 157.358 205.298 156.353C205.378 155.332 205.418 154.24 205.418 153.075V148.529C205.418 147.843 205.458 147.174 205.538 146.52C205.617 145.866 205.785 145.283 206.04 144.773C206.311 144.263 206.686 143.856 207.165 143.553C207.659 143.234 208.321 143.074 209.15 143.074C209.964 143.074 210.61 143.234 211.088 143.553C211.567 143.856 211.934 144.263 212.189 144.773C212.444 145.283 212.604 145.866 212.667 146.52C212.747 147.174 212.787 147.843 212.787 148.529V161.593C212.787 162.279 212.763 162.949 212.715 163.603C212.667 164.241 212.524 164.815 212.285 165.325C212.045 165.82 211.679 166.226 211.184 166.545C210.706 166.848 210.028 167 209.15 167C208.273 167 207.587 166.856 207.093 166.569C206.598 166.266 206.223 165.907 205.968 165.493C205.729 165.078 205.577 164.639 205.514 164.177C205.45 163.714 205.418 163.315 205.418 162.98C205.29 163.443 205.091 163.914 204.82 164.392C204.549 164.871 204.198 165.301 203.767 165.684C203.352 166.067 202.85 166.386 202.26 166.641C201.67 166.88 200.984 167 200.202 167C199.325 167 198.448 166.856 197.57 166.569C196.693 166.282 195.903 165.804 195.202 165.134C194.5 164.464 193.926 163.587 193.479 162.502C193.048 161.417 192.833 160.077 192.833 158.482V148.529ZM238.148 153.362C238.148 153.618 238.132 153.921 238.101 154.271C238.069 154.606 237.941 154.933 237.718 155.252C237.51 155.556 237.175 155.819 236.713 156.042C236.25 156.265 235.596 156.377 234.751 156.377H225.229V158.674C225.229 159.057 225.276 159.455 225.372 159.87C225.468 160.285 225.627 160.668 225.851 161.019C226.09 161.369 226.401 161.657 226.784 161.88C227.167 162.103 227.637 162.215 228.195 162.215C228.833 162.215 229.32 162.143 229.655 162C230.006 161.84 230.277 161.649 230.468 161.425C230.676 161.202 230.859 160.963 231.019 160.708C231.178 160.452 231.385 160.213 231.641 159.99C231.912 159.766 232.279 159.583 232.741 159.439C233.22 159.28 233.874 159.2 234.703 159.2C235.102 159.2 235.485 159.232 235.852 159.296C236.234 159.36 236.569 159.479 236.856 159.655C237.144 159.83 237.375 160.077 237.55 160.396C237.726 160.7 237.813 161.098 237.813 161.593C237.813 162.63 237.486 163.499 236.833 164.201C236.179 164.887 235.357 165.437 234.368 165.852C233.379 166.266 232.303 166.561 231.138 166.737C229.99 166.912 228.913 167 227.908 167C226.584 166.984 225.324 166.817 224.128 166.498C222.932 166.179 221.871 165.668 220.946 164.966C220.037 164.264 219.311 163.347 218.769 162.215C218.226 161.082 217.955 159.695 217.955 158.052V152.453C217.955 150.938 218.131 149.654 218.481 148.601C218.848 147.548 219.319 146.671 219.893 145.969C220.467 145.267 221.113 144.725 221.831 144.342C222.549 143.944 223.275 143.648 224.008 143.457C224.742 143.266 225.436 143.146 226.09 143.098C226.76 143.05 227.334 143.026 227.812 143.026C229.424 143.026 230.795 143.17 231.928 143.457C233.076 143.744 234.033 144.119 234.799 144.582C235.564 145.044 236.171 145.578 236.617 146.185C237.064 146.791 237.399 147.421 237.622 148.075C237.845 148.713 237.989 149.367 238.053 150.037C238.117 150.691 238.148 151.305 238.148 151.879V153.362ZM225.229 152.788H231.21C231.21 152.038 231.186 151.376 231.138 150.802C231.106 150.212 230.987 149.718 230.779 149.319C230.588 148.92 230.277 148.617 229.846 148.41C229.431 148.202 228.833 148.099 228.052 148.099C227.398 148.099 226.879 148.202 226.497 148.41C226.13 148.617 225.851 148.88 225.659 149.199C225.468 149.502 225.348 149.829 225.3 150.18C225.252 150.531 225.229 150.842 225.229 151.113V152.788ZM249.394 149.343C249.394 149.662 249.497 149.957 249.705 150.228C249.912 150.499 250.191 150.762 250.542 151.018C250.909 151.257 251.324 151.496 251.786 151.735C252.265 151.975 252.759 152.214 253.27 152.453C254.051 152.836 254.849 153.251 255.662 153.697C256.476 154.128 257.217 154.638 257.887 155.229C258.557 155.819 259.099 156.505 259.514 157.286C259.945 158.052 260.16 158.961 260.16 160.014C260.16 160.971 260.017 161.816 259.729 162.55C259.458 163.284 259.091 163.922 258.629 164.464C258.166 164.99 257.624 165.429 257.002 165.78C256.396 166.131 255.75 166.41 255.064 166.617C254.394 166.825 253.708 166.968 253.006 167.048C252.305 167.144 251.643 167.191 251.021 167.191C249.792 167.191 248.724 167.088 247.814 166.88C246.905 166.673 246.124 166.402 245.47 166.067C244.816 165.716 244.273 165.325 243.843 164.895C243.428 164.448 243.101 163.985 242.862 163.507C242.623 163.028 242.455 162.558 242.359 162.095C242.264 161.617 242.216 161.178 242.216 160.779C242.216 159.822 242.479 159.12 243.005 158.674C243.548 158.227 244.369 158.004 245.47 158.004C246.267 158.004 246.921 158.219 247.432 158.65C247.942 159.081 248.213 159.774 248.245 160.731C248.261 161.05 248.349 161.306 248.508 161.497C248.684 161.688 248.899 161.848 249.154 161.976C249.425 162.087 249.721 162.167 250.04 162.215C250.359 162.247 250.67 162.263 250.973 162.263C251.595 162.263 252.097 162.103 252.48 161.784C252.879 161.449 253.078 161.019 253.078 160.492C253.078 160.046 252.943 159.631 252.671 159.248C252.416 158.849 252.073 158.482 251.643 158.147C251.212 157.812 250.717 157.493 250.159 157.19C249.617 156.871 249.059 156.552 248.484 156.233C247.767 155.851 247.041 155.444 246.307 155.013C245.589 154.583 244.935 154.104 244.345 153.578C243.755 153.051 243.277 152.461 242.91 151.807C242.543 151.137 242.359 150.38 242.359 149.534C242.359 148.29 242.559 147.253 242.958 146.424C243.372 145.578 243.97 144.901 244.752 144.39C245.534 143.864 246.483 143.489 247.599 143.266C248.732 143.042 250.016 142.915 251.451 142.883H251.834C253.126 142.883 254.219 142.994 255.112 143.218C256.021 143.441 256.771 143.736 257.361 144.103C257.967 144.454 258.438 144.853 258.772 145.299C259.123 145.746 259.379 146.201 259.538 146.663C259.714 147.11 259.817 147.54 259.849 147.955C259.897 148.37 259.921 148.721 259.921 149.008C259.921 149.486 259.817 149.885 259.61 150.204C259.418 150.507 259.155 150.754 258.82 150.946C258.501 151.121 258.134 151.249 257.72 151.329C257.305 151.392 256.874 151.432 256.428 151.448C256.045 151.448 255.694 151.384 255.375 151.257C255.072 151.129 254.809 150.97 254.585 150.778C254.362 150.587 254.187 150.372 254.059 150.132C253.947 149.893 253.892 149.662 253.892 149.438C253.86 148.832 253.612 148.37 253.15 148.051C252.703 147.732 252.153 147.572 251.499 147.572C251.228 147.572 250.965 147.604 250.709 147.668C250.47 147.716 250.247 147.812 250.04 147.955C249.848 148.083 249.689 148.258 249.561 148.481C249.449 148.705 249.394 148.992 249.394 149.343ZM271.166 149.343C271.166 149.662 271.27 149.957 271.477 150.228C271.684 150.499 271.964 150.762 272.314 151.018C272.681 151.257 273.096 151.496 273.559 151.735C274.037 151.975 274.532 152.214 275.042 152.453C275.824 152.836 276.621 153.251 277.435 153.697C278.248 154.128 278.99 154.638 279.66 155.229C280.33 155.819 280.872 156.505 281.287 157.286C281.717 158.052 281.933 158.961 281.933 160.014C281.933 160.971 281.789 161.816 281.502 162.55C281.231 163.284 280.864 163.922 280.401 164.464C279.939 164.99 279.396 165.429 278.774 165.78C278.168 166.131 277.522 166.41 276.836 166.617C276.167 166.825 275.481 166.968 274.779 167.048C274.077 167.144 273.415 167.191 272.793 167.191C271.565 167.191 270.496 167.088 269.587 166.88C268.678 166.673 267.896 166.402 267.242 166.067C266.588 165.716 266.046 165.325 265.615 164.895C265.201 164.448 264.874 163.985 264.634 163.507C264.395 163.028 264.228 162.558 264.132 162.095C264.036 161.617 263.988 161.178 263.988 160.779C263.988 159.822 264.251 159.12 264.778 158.674C265.32 158.227 266.142 158.004 267.242 158.004C268.04 158.004 268.694 158.219 269.204 158.65C269.715 159.081 269.986 159.774 270.018 160.731C270.034 161.05 270.121 161.306 270.281 161.497C270.456 161.688 270.672 161.848 270.927 161.976C271.198 162.087 271.493 162.167 271.812 162.215C272.131 162.247 272.442 162.263 272.745 162.263C273.367 162.263 273.87 162.103 274.252 161.784C274.651 161.449 274.851 161.019 274.851 160.492C274.851 160.046 274.715 159.631 274.444 159.248C274.189 158.849 273.846 158.482 273.415 158.147C272.984 157.812 272.49 157.493 271.932 157.19C271.389 156.871 270.831 156.552 270.257 156.233C269.539 155.851 268.813 155.444 268.08 155.013C267.362 154.583 266.708 154.104 266.118 153.578C265.528 153.051 265.049 152.461 264.682 151.807C264.315 151.137 264.132 150.38 264.132 149.534C264.132 148.29 264.331 147.253 264.73 146.424C265.145 145.578 265.743 144.901 266.524 144.39C267.306 143.864 268.255 143.489 269.372 143.266C270.504 143.042 271.788 142.915 273.224 142.883H273.606C274.898 142.883 275.991 142.994 276.884 143.218C277.793 143.441 278.543 143.736 279.133 144.103C279.739 144.454 280.21 144.853 280.545 145.299C280.896 145.746 281.151 146.201 281.311 146.663C281.486 147.11 281.59 147.54 281.622 147.955C281.669 148.37 281.693 148.721 281.693 149.008C281.693 149.486 281.59 149.885 281.382 150.204C281.191 150.507 280.928 150.754 280.593 150.946C280.274 151.121 279.907 151.249 279.492 151.329C279.077 151.392 278.647 151.432 278.2 151.448C277.817 151.448 277.466 151.384 277.147 151.257C276.844 151.129 276.581 150.97 276.358 150.778C276.135 150.587 275.959 150.372 275.832 150.132C275.72 149.893 275.664 149.662 275.664 149.438C275.632 148.832 275.385 148.37 274.922 148.051C274.476 147.732 273.925 147.572 273.271 147.572C273 147.572 272.737 147.604 272.482 147.668C272.243 147.716 272.019 147.812 271.812 147.955C271.621 148.083 271.461 148.258 271.333 148.481C271.222 148.705 271.166 148.992 271.166 149.343ZM350.695 152.453C350.695 152.964 350.663 153.458 350.6 153.937C350.552 154.415 350.432 154.846 350.241 155.229C350.049 155.595 349.77 155.898 349.403 156.138C349.052 156.361 348.574 156.473 347.968 156.473C347.362 156.473 346.875 156.361 346.508 156.138C346.157 155.898 345.886 155.595 345.695 155.229C345.503 154.846 345.376 154.415 345.312 153.937C345.264 153.458 345.24 152.964 345.24 152.453L343.996 144.701V138.863C343.996 138.193 344.052 137.539 344.164 136.901C344.275 136.263 344.475 135.697 344.762 135.203C345.049 134.708 345.448 134.309 345.958 134.006C346.484 133.703 347.154 133.552 347.968 133.552C348.781 133.552 349.443 133.711 349.954 134.03C350.464 134.333 350.863 134.74 351.15 135.25C351.437 135.745 351.628 136.311 351.724 136.949C351.836 137.587 351.892 138.241 351.892 138.911V144.797L350.695 152.453ZM351.892 163.076C351.892 164.432 351.549 165.437 350.863 166.091C350.177 166.729 349.212 167.048 347.968 167.048C346.692 167.048 345.711 166.729 345.025 166.091C344.339 165.437 343.996 164.432 343.996 163.076C343.996 161.704 344.339 160.708 345.025 160.085C345.711 159.463 346.692 159.152 347.968 159.152C349.292 159.152 350.273 159.463 350.911 160.085C351.565 160.708 351.892 161.704 351.892 163.076Z" fill="#272727"/>
<path d="M306.48 148.434C306.48 147.764 306.512 147.11 306.576 146.472C306.656 145.834 306.823 145.267 307.079 144.773C307.334 144.263 307.701 143.856 308.179 143.553C308.658 143.234 309.304 143.074 310.117 143.074C310.931 143.074 311.577 143.234 312.055 143.553C312.534 143.856 312.901 144.263 313.156 144.773C313.411 145.267 313.57 145.834 313.634 146.472C313.714 147.11 313.754 147.764 313.754 148.434V161.641C313.754 162.311 313.714 162.972 313.634 163.626C313.57 164.264 313.411 164.839 313.156 165.349C312.901 165.844 312.534 166.242 312.055 166.545C311.577 166.848 310.931 167 310.117 167C309.304 167 308.658 166.848 308.179 166.545C307.701 166.242 307.334 165.844 307.079 165.349C306.823 164.839 306.656 164.264 306.576 163.626C306.512 162.972 306.48 162.311 306.48 161.641V148.434ZM313.802 137.141C313.802 138.369 313.483 139.286 312.845 139.892C312.207 140.482 311.313 140.777 310.165 140.777C309.017 140.777 308.123 140.482 307.485 139.892C306.847 139.286 306.528 138.369 306.528 137.141C306.528 135.865 306.847 134.939 307.485 134.365C308.123 133.791 309.017 133.504 310.165 133.504C311.393 133.504 312.302 133.791 312.893 134.365C313.499 134.939 313.802 135.865 313.802 137.141ZM323.946 143.074V138.863C323.946 138.193 323.978 137.539 324.042 136.901C324.122 136.263 324.289 135.697 324.544 135.203C324.8 134.692 325.167 134.285 325.645 133.982C326.124 133.663 326.77 133.504 327.583 133.504C328.381 133.504 329.019 133.663 329.497 133.982C329.976 134.285 330.334 134.692 330.574 135.203C330.829 135.697 330.988 136.263 331.052 136.901C331.132 137.539 331.172 138.193 331.172 138.863V143.074H333.134C333.549 143.074 333.963 143.098 334.378 143.146C334.793 143.178 335.16 143.29 335.479 143.481C335.813 143.672 336.077 143.959 336.268 144.342C336.475 144.725 336.579 145.259 336.579 145.945C336.579 146.599 336.475 147.118 336.268 147.5C336.077 147.883 335.813 148.17 335.479 148.362C335.16 148.553 334.793 148.681 334.378 148.745C333.963 148.792 333.549 148.816 333.134 148.816H331.172V157.19C331.172 157.509 331.18 157.852 331.196 158.219C331.228 158.57 331.315 158.897 331.459 159.2C331.603 159.503 331.818 159.758 332.105 159.966C332.392 160.157 332.799 160.253 333.325 160.253C333.899 160.253 334.386 160.301 334.785 160.396C335.199 160.476 335.534 160.628 335.79 160.851C336.061 161.074 336.26 161.385 336.388 161.784C336.515 162.183 336.579 162.693 336.579 163.315C336.579 163.953 336.428 164.504 336.125 164.966C335.837 165.429 335.447 165.812 334.952 166.115C334.458 166.418 333.883 166.641 333.229 166.785C332.576 166.928 331.89 167 331.172 167C330.039 167 329.066 166.88 328.253 166.641C327.455 166.402 326.785 166.067 326.243 165.636C325.717 165.19 325.294 164.663 324.975 164.057C324.672 163.435 324.441 162.741 324.281 161.976C324.138 161.21 324.042 160.389 323.994 159.511C323.962 158.618 323.946 157.685 323.946 156.712V148.816H322.606C322.192 148.816 321.777 148.792 321.362 148.745C320.964 148.681 320.605 148.553 320.286 148.362C319.967 148.17 319.703 147.883 319.496 147.5C319.305 147.118 319.209 146.599 319.209 145.945C319.209 145.259 319.305 144.725 319.496 144.342C319.703 143.959 319.967 143.672 320.286 143.481C320.605 143.29 320.964 143.178 321.362 143.146C321.777 143.098 322.192 143.074 322.606 143.074H323.946Z" fill="#52C5E4"/>
</svg>
